<svg width="65" height="52" viewBox="0 0 65 52" fill="none" xmlns="http://www.w3.org/2000/svg">
<g clip-path="url(#clip0)">
<path d="M44.5882 14.6941C44.3185 14.4404 43.9612 14.2888 43.5662 14.288H37.2871V1.49738C37.287 0.671773 36.6154 0 35.7897 0H20.5762C20.2218 0 19.9345 0.287289 19.9345 0.641695C19.9345 0.996102 20.2218 1.28339 20.5762 1.28339H35.7897C35.9077 1.28339 36.0036 1.3793 36.0036 1.49729V27.0823C35.9983 27.1901 35.9053 27.3008 35.7897 27.2962H15.4337C15.3157 27.2962 15.2198 27.2003 15.2198 27.0823V1.49738C15.2198 1.37938 15.3157 1.28348 15.4337 1.28348H17.4151C17.7695 1.28348 18.0568 0.996188 18.0568 0.641781C18.0568 0.287375 17.7696 0 17.4152 0H15.4337C14.608 0 13.9363 0.671773 13.9363 1.49738V27.0824C13.9363 27.9081 14.6081 28.5798 15.4337 28.5798H21.7127V35.4743C21.7127 35.8288 22 36.116 22.3544 36.116C22.7088 36.116 22.9961 35.8287 22.9961 35.4743V28.5798H35.7896C36.3737 28.5785 36.8782 28.2486 37.1276 27.7506L43.7799 16.9431V23.1227C43.7799 23.4772 44.0672 23.7644 44.4216 23.7644C44.7761 23.7644 45.0633 23.4771 45.0633 23.1227V15.7853C45.0635 15.355 44.8799 14.9676 44.5882 14.6941ZM37.287 15.5714H43.1171L37.287 25.0433V15.5714Z" fill="#FB7059"/>
<path d="M44.4216 25.5536C44.0671 25.5536 43.7799 25.8409 43.7799 26.1953V41.8248L42.221 39.8083C41.9807 39.4974 41.6174 39.319 41.2243 39.319C41.2242 39.319 41.2242 39.319 41.2242 39.319C40.8312 39.319 40.4678 39.4973 40.2274 39.8083L37.9907 42.7016L35.7541 39.8083C35.5137 39.4974 35.1504 39.319 34.7574 39.319C34.7573 39.319 34.7573 39.319 34.7572 39.319C34.3642 39.319 34.0008 39.4973 33.7604 39.8083L31.5237 42.7016L29.2871 39.8082C29.0466 39.4973 28.6833 39.319 28.2902 39.319C27.8971 39.319 27.5339 39.4973 27.2935 39.8083L25.0568 42.7016L23.0696 40.1309C23.0222 40.0696 22.996 39.9931 22.996 39.9155V38.6074C22.996 38.2529 22.7087 37.9657 22.3543 37.9657C21.9999 37.9657 21.7126 38.253 21.7126 38.6074V39.9155C21.7126 40.2758 21.834 40.6311 22.0543 40.916L24.0601 43.5107C24.3006 43.8217 24.6639 44 25.057 44C25.45 44 25.8133 43.8217 26.0537 43.5107L28.2904 40.6173L30.5271 43.5107C30.7675 43.8217 31.1309 44.0001 31.524 44C31.9171 44 32.2803 43.8216 32.5207 43.5107L34.7574 40.6174L36.9941 43.5107C37.2345 43.8217 37.5978 44.0001 37.991 44C38.3841 44 38.7473 43.8216 38.9876 43.5107L41.2243 40.6174L43.4889 43.5467C43.7188 43.8442 44.1123 43.9626 44.4685 43.8412C44.8244 43.7197 45.0636 43.3854 45.0636 43.0093V26.1953C45.0634 25.8409 44.7761 25.5536 44.4216 25.5536Z" fill="#FB7059"/>
<path d="M18.3813 9.36769C18.7362 9.64604 19.1793 9.90102 19.7887 10.1709V14.2706C19.243 14.2352 18.8763 14.1098 18.2653 13.7101C17.9688 13.5162 17.571 13.5991 17.377 13.8958C17.183 14.1924 17.2661 14.5901 17.5627 14.7842C18.4296 15.3513 19.0191 15.5151 19.7887 15.5551V16.3155C19.7887 16.67 20.076 16.9572 20.4304 16.9572C20.7848 16.9572 21.0721 16.6699 21.0721 16.3155V15.5052C22.5858 15.2204 23.4698 13.9781 23.6649 12.8177C23.914 11.3359 23.1387 10.0475 21.6896 9.53518C21.4868 9.46351 21.2791 9.38814 21.0721 9.3096V6.05772C21.6072 6.17571 21.927 6.44762 21.9539 6.47134C22.2144 6.70775 22.6176 6.69005 22.8566 6.43095C23.0969 6.17039 23.0805 5.76442 22.82 5.52414C22.7818 5.48882 22.1331 4.90504 21.0721 4.75448V4.0748C21.0721 3.72031 20.7848 3.43311 20.4304 3.43311C20.076 3.43311 19.7887 3.72039 19.7887 4.0748V4.80389C17.7517 5.04065 16.7304 8.10097 18.3813 9.36769ZM21.2619 10.7454C22.5318 11.1943 22.4535 12.2823 22.3992 12.605C22.2916 13.2451 21.8402 13.9258 21.0721 14.1795V10.6775C21.1346 10.7 21.1969 10.7225 21.2619 10.7454ZM18.8629 7.25466C18.9427 6.83125 19.2282 6.32052 19.7887 6.1312V8.74619C19.5561 8.6227 19.3462 8.49328 19.1733 8.35775C18.8948 8.13939 18.7759 7.71666 18.8629 7.25466Z" fill="#FB7059"/>
<path d="M26.7384 5.42304H32.9953C33.3498 5.42304 33.637 5.13575 33.637 4.78134C33.637 4.42694 33.3497 4.13965 32.9953 4.13965H26.7384C26.384 4.13965 26.0967 4.42694 26.0967 4.78134C26.0967 5.13575 26.384 5.42304 26.7384 5.42304Z" fill="#FB7059"/>
<path d="M26.7384 9.31269H32.9953C33.3498 9.31269 33.637 9.0254 33.637 8.67099C33.637 8.31659 33.3497 8.0293 32.9953 8.0293H26.7384C26.384 8.0293 26.0967 8.31659 26.0967 8.67099C26.0967 9.0254 26.384 9.31269 26.7384 9.31269Z" fill="#FB7059"/>
<path d="M26.7384 13.2017H32.9953C33.3498 13.2017 33.637 12.9144 33.637 12.56C33.637 12.2055 33.3497 11.9183 32.9953 11.9183H26.7384C26.384 11.9183 26.0967 12.2056 26.0967 12.56C26.0967 12.9144 26.384 13.2017 26.7384 13.2017Z" fill="#FB7059"/>
<path d="M26.7384 17.0915H32.9953C33.3498 17.0915 33.637 16.8042 33.637 16.4498C33.637 16.0954 33.3497 15.8081 32.9953 15.8081H26.7384C26.384 15.8081 26.0967 16.0954 26.0967 16.4498C26.0967 16.8042 26.384 17.0915 26.7384 17.0915Z" fill="#FB7059"/>
<path d="M32.9953 19.697H31.1183C30.7638 19.697 30.4766 19.9843 30.4766 20.3387C30.4766 20.6932 30.7638 20.9804 31.1183 20.9804H32.9953C33.3498 20.9804 33.637 20.6931 33.637 20.3387C33.637 19.9843 33.3498 19.697 32.9953 19.697Z" fill="#FB7059"/>
<path d="M17.4812 20.3387C17.4812 20.6932 17.7685 20.9804 18.1229 20.9804H28.146C28.5004 20.9804 28.7877 20.6931 28.7877 20.3387C28.7877 19.9842 28.5004 19.697 28.146 19.697H18.1229C17.7685 19.697 17.4812 19.9843 17.4812 20.3387Z" fill="#FB7059"/>
<path d="M32.9951 23.5861H18.1229C17.7685 23.5861 17.4812 23.8733 17.4812 24.2278C17.4812 24.5822 17.7685 24.8695 18.1229 24.8695H32.9951C33.3496 24.8695 33.6368 24.5822 33.6368 24.2278C33.6368 23.8733 33.3496 23.5861 32.9951 23.5861Z" fill="#FB7059"/>
<path d="M40.8242 30.9624H25.952C25.5976 30.9624 25.3103 31.2497 25.3103 31.6041C25.3103 31.9586 25.5976 32.2458 25.952 32.2458H40.8242C41.1787 32.2458 41.4659 31.9585 41.4659 31.6041C41.4659 31.2497 41.1786 30.9624 40.8242 30.9624Z" fill="#FB7059"/>
<path d="M40.8243 34.8514H32.8456C32.4911 34.8514 32.2039 35.1387 32.2039 35.4931C32.2039 35.8475 32.4911 36.1348 32.8456 36.1348H40.8243C41.1788 36.1348 41.466 35.8475 41.466 35.4931C41.466 35.1387 41.1787 34.8514 40.8243 34.8514Z" fill="#FB7059"/>
<path d="M25.952 36.1348H29.7811C30.1356 36.1348 30.4228 35.8475 30.4228 35.4931C30.4228 35.1387 30.1355 34.8514 29.7811 34.8514H25.952C25.5976 34.8514 25.3103 35.1387 25.3103 35.4931C25.3103 35.8475 25.5976 36.1348 25.952 36.1348Z" fill="#FB7059"/>
</g>
<line x1="1" y1="51.5" x2="64" y2="51.5" stroke="url(#paint0_linear)" stroke-linecap="round"/>
<defs>
<linearGradient id="paint0_linear" x1="-1.76772" y1="52.9308" x2="-1.66361" y2="49.7681" gradientUnits="userSpaceOnUse">
<stop stop-color="#E7047F"/>
<stop offset="0.448477" stop-color="#FF0D74"/>
<stop offset="1" stop-color="#FF583C"/>
</linearGradient>
<clipPath id="clip0">
<rect width="44" height="44" fill="white" transform="translate(7.5)"/>
</clipPath>
</defs>
</svg>
