<svg width="496" height="284" viewBox="0 0 496 284" fill="none" xmlns="http://www.w3.org/2000/svg">
<path fill-rule="evenodd" clip-rule="evenodd" d="M7.8 47.6399C13 52.2799 20.6 54.5999 30.6 54.5999C35.08 54.5999 41.2 53.7999 48.96 52.1999V87.4799H67.68V2.03988H48.96V37.0799C41.6 38.3599 35.96 38.9999 32.04 38.9999C27.24 38.9999 23.8 37.9599 21.72 35.8799C19.72 33.7199 18.72 30.0799 18.72 24.9599V2.03988H0V24.7199C0 35.2799 2.6 42.9199 7.8 47.6399ZM155.999 87.4799V2.03988H134.879L102.719 61.1999H102.359V2.03988H83.6391V87.4799H104.759L136.919 28.1999H137.279V87.4799H155.999ZM237.624 80.0399C244.184 73.7199 247.944 65.1999 248.904 54.4799H230.304C228.704 67.2799 222.184 73.6799 210.744 73.6799C203.864 73.6799 198.384 71.0799 194.304 65.8799C190.224 60.5999 188.184 53.5599 188.184 44.7599C188.184 39.7199 188.904 35.0799 190.344 30.8399C191.784 26.5999 194.264 23.0399 197.784 20.1599C201.384 17.1999 205.784 15.7199 210.984 15.7199C216.024 15.7199 220.184 17.0399 223.464 19.6799C226.824 22.2399 228.984 25.8799 229.944 30.5999H248.304C247.584 21.7199 243.784 14.3999 236.904 8.63988C230.024 2.87988 221.504 -0.00012207 211.344 -0.00012207C198.624 -0.00012207 188.424 4.23988 180.744 12.7199C173.144 21.1999 169.344 31.8399 169.344 44.6399C169.344 58.1599 173.104 69.0399 180.624 77.2799C188.224 85.4399 198.224 89.5199 210.624 89.5199C222.064 89.5199 231.064 86.3599 237.624 80.0399ZM322.9 17.9999V2.03988H252.7V17.9999H278.38V87.4799H297.22V17.9999H322.9ZM399.55 12.4799C391.87 4.15988 381.79 -0.00012207 369.31 -0.00012207C356.51 -0.00012207 346.23 4.11988 338.47 12.3599C330.79 20.5199 326.95 31.3599 326.95 44.8799C326.95 58.2399 330.83 69.0399 338.59 77.2799C346.35 85.4399 356.55 89.5199 369.19 89.5199C381.75 89.5199 391.87 85.4399 399.55 77.2799C407.31 69.0399 411.19 58.2399 411.19 44.8799C411.19 31.5199 407.31 20.7199 399.55 12.4799ZM352.15 23.2799C356.39 17.9999 362.03 15.3599 369.07 15.3599C376.19 15.3599 381.83 17.9999 385.99 23.2799C390.15 28.4799 392.23 35.5599 392.23 44.5199C392.23 53.6399 390.19 60.8399 386.11 66.1199C382.03 71.3999 376.43 74.0399 369.31 74.0399C362.03 73.9599 356.31 71.3199 352.15 66.1199C347.99 60.9199 345.91 53.7199 345.91 44.5199C345.91 35.6399 347.99 28.5599 352.15 23.2799ZM12.4801 241.16C17.6801 245.8 25.2801 248.12 35.2801 248.12C39.7601 248.12 45.8801 247.32 53.6401 245.72V281H72.3601V195.56H53.6401V230.6C46.2801 231.88 40.6401 232.52 36.7201 232.52C31.9201 232.52 28.4801 231.48 26.4001 229.4C24.4001 227.24 23.4001 223.6 23.4001 218.48V195.56H4.68012V218.24C4.68012 228.8 7.28012 236.44 12.4801 241.16ZM152.399 210.92V195.56H88.3192V281H153.239V265.28H106.919V244.28H148.679V229.52H106.919V210.92H152.399ZM231.172 273.56C237.732 267.24 241.492 258.72 242.452 248H223.852C222.252 260.8 215.732 267.2 204.292 267.2C197.412 267.2 191.932 264.6 187.852 259.4C183.772 254.12 181.732 247.08 181.732 238.28C181.732 233.24 182.452 228.6 183.892 224.36C185.332 220.12 187.812 216.56 191.332 213.68C194.932 210.72 199.332 209.24 204.532 209.24C209.572 209.24 213.732 210.56 217.012 213.2C220.372 215.76 222.532 219.4 223.492 224.12H241.852C241.132 215.24 237.332 207.92 230.452 202.16C223.572 196.4 215.052 193.52 204.892 193.52C192.172 193.52 181.972 197.76 174.292 206.24C166.692 214.72 162.892 225.36 162.892 238.16C162.892 251.68 166.652 262.56 174.172 270.8C181.772 278.96 191.772 283.04 204.172 283.04C215.612 283.04 224.612 279.88 231.172 273.56ZM316.448 211.52V195.56H246.248V211.52H271.928V281H290.768V211.52H316.448ZM379.967 281H398.687V195.56H379.967V227.72H345.047V195.56H326.327V281H345.047V244.16H379.967V281ZM484.152 206C476.472 197.68 466.392 193.52 453.912 193.52C441.112 193.52 430.832 197.64 423.072 205.88C415.392 214.04 411.552 224.88 411.552 238.4C411.552 251.76 415.432 262.56 423.192 270.8C430.952 278.96 441.152 283.04 453.792 283.04C466.352 283.04 476.472 278.96 484.152 270.8C491.912 262.56 495.792 251.76 495.792 238.4C495.792 225.04 491.912 214.24 484.152 206ZM436.752 216.8C440.992 211.52 446.632 208.88 453.672 208.88C460.792 208.88 466.432 211.52 470.592 216.8C474.752 222 476.832 229.08 476.832 238.04C476.832 247.16 474.792 254.36 470.712 259.64C466.632 264.92 461.032 267.56 453.912 267.56C446.632 267.48 440.912 264.84 436.752 259.64C432.592 254.44 430.512 247.24 430.512 238.04C430.512 229.16 432.592 222.08 436.752 216.8ZM254.004 123.75L247.127 130.627L239.254 138.5L247.127 146.373L254.004 153.25L240.25 167.004L233.373 160.127L225.5 152.254L217.627 160.127L210.75 167.004L196.997 153.25L203.873 146.373L211.747 138.5L203.873 130.627L196.997 123.75L210.75 109.996L217.627 116.873L225.5 124.746L233.373 116.873L240.25 109.996L254.004 123.75Z" fill="url(#paint0_linear)"/>
<defs>
<linearGradient id="paint0_linear" x1="-50.9812" y1="253.128" x2="414.195" y2="-105.649" gradientUnits="userSpaceOnUse">
<stop stop-color="#CB1476"/>
<stop offset="0.307292" stop-color="#FF0A77"/>
<stop offset="1" stop-color="#FF583C"/>
</linearGradient>
</defs>
</svg>
