<svg xmlns="http://www.w3.org/2000/svg" viewBox="0 0 119 33.19"><defs><style>.cls-1{fill:#043e44;}.cls-2{fill:#fff;}</style></defs><title>Ресурс 2</title><g id="Слой_2" data-name="Слой 2"><g id="Слой_1-2" data-name="Слой 1"><path class="cls-1" d="M37.93.13h3.35l3.81,12,3.78-12h3.36L47,15.73H43.17Z"/><path class="cls-1" d="M64,10.16A5.64,5.64,0,0,1,58.59,16,4.31,4.31,0,0,1,55,14.41v5.77H52.11V4.59H55V5.9a4.33,4.33,0,0,1,3.61-1.62A5.64,5.64,0,0,1,64,10.16Zm-2.87,0a3.09,3.09,0,1,0-6.18,0,3.09,3.09,0,1,0,6.18,0Z"/><path class="cls-1" d="M71.71,4.36V7.57c-1.5-.18-3.39.49-3.39,2.83v5.33H65.45V4.59h2.87V6.5A3.44,3.44,0,0,1,71.71,4.36Z"/><path class="cls-1" d="M71.77,10.16A5.9,5.9,0,1,1,77.66,16,5.82,5.82,0,0,1,71.77,10.16Zm8.92,0a3,3,0,1,0-6,0,3,3,0,1,0,6,0Z"/><path class="cls-1" d="M91.91,15.73l-4.06-5.06v5.06H85V.13h2.87V9.49l3.84-4.9h3.43l-4.48,5.5,4.61,5.64Z"/><path class="cls-1" d="M95.85,14.12a1.9,1.9,0,1,1,1.9,1.9A1.89,1.89,0,0,1,95.85,14.12Z"/><path class="cls-1" d="M107.7,4.36V7.57a2.78,2.78,0,0,0-3.38,2.83v5.33h-2.88V4.59h2.88V6.5A3.43,3.43,0,0,1,107.7,4.36Z"/><path class="cls-1" d="M119,4.59V15.73h-2.87V14.48A3.8,3.8,0,0,1,112.81,16c-2.36,0-4.21-1.65-4.21-4.61V4.59h2.87v6.49a2.07,2.07,0,0,0,2.21,2.29c1.4,0,2.44-.82,2.44-2.76v-6H119Z"/><path class="cls-1" d="M47,30.62H45.23V23.33H42.05v7.29H40.28v-9H47Z"/><path class="cls-1" d="M51.67,29.3a1.8,1.8,0,0,0,1.44-.64l1.34.77a3.86,3.86,0,1,1,.32-2,3.64,3.64,0,0,1-.07.68H49.86A1.68,1.68,0,0,0,51.67,29.3Zm1.44-2.49a1.56,1.56,0,0,0-1.59-1.3,1.6,1.6,0,0,0-1.68,1.3Z"/><path class="cls-1" d="M62.66,27.41a3.24,3.24,0,0,1-3.13,3.39,2.48,2.48,0,0,1-2.08-.93v3.32H55.8v-9h1.65V25A2.49,2.49,0,0,1,59.53,24,3.26,3.26,0,0,1,62.66,27.41Zm-1.65,0a1.78,1.78,0,1,0-1.79,1.81A1.73,1.73,0,0,0,61,27.41Z"/><path class="cls-1" d="M66.91,29.3a1.77,1.77,0,0,0,1.44-.64l1.34.77a3.25,3.25,0,0,1-2.8,1.37A3.39,3.39,0,1,1,66.76,24,3.25,3.25,0,0,1,70,27.41a3.66,3.66,0,0,1-.06.68H65.11A1.67,1.67,0,0,0,66.91,29.3Zm1.44-2.49a1.56,1.56,0,0,0-1.59-1.3,1.6,1.6,0,0,0-1.68,1.3Z"/><path class="cls-1" d="M75,30.62l-2.34-2.91v2.91H71V24.2h1.65V27L74.9,24.2h2L74.3,27.37,77,30.62Z"/><path class="cls-1" d="M84.52,27.41a3.24,3.24,0,0,1-3.13,3.39,2.48,2.48,0,0,1-2.08-.93v3.32H77.65v-9h1.66V25A2.49,2.49,0,0,1,81.39,24,3.26,3.26,0,0,1,84.52,27.41Zm-1.66,0a1.78,1.78,0,1,0-1.78,1.81A1.73,1.73,0,0,0,82.86,27.41Z"/><path class="cls-1" d="M88.77,29.3a1.77,1.77,0,0,0,1.44-.64l1.34.77a3.27,3.27,0,0,1-2.8,1.37A3.39,3.39,0,1,1,88.62,24a3.25,3.25,0,0,1,3.25,3.39,3.55,3.55,0,0,1-.07.68H87A1.69,1.69,0,0,0,88.77,29.3Zm-2.32-6.64a.88.88,0,0,1,.87-.87.87.87,0,0,1,.86.87.85.85,0,0,1-.86.86A.87.87,0,0,1,86.45,22.66Zm3.76,4.15a1.55,1.55,0,0,0-1.59-1.3,1.6,1.6,0,0,0-1.68,1.3Zm-1.32-4.15a.87.87,0,1,1,1.73,0,.87.87,0,0,1-1.73,0Z"/><path class="cls-1" d="M92.51,27.41A3.32,3.32,0,0,1,95.9,24a3.21,3.21,0,0,1,2.87,1.66l-1.42.83a1.6,1.6,0,0,0-1.46-.86,1.76,1.76,0,0,0,0,3.51,1.58,1.58,0,0,0,1.47-.85l1.44.82a3.26,3.26,0,0,1-2.9,1.67A3.31,3.31,0,0,1,92.51,27.41Z"/><path class="cls-1" d="M104.91,25.8h-2v4.82h-1.66V25.8h-2V24.2h5.69v1.6Z"/><path class="cls-1" d="M105.08,27.41a3.4,3.4,0,1,1,3.39,3.39A3.36,3.36,0,0,1,105.08,27.41Zm5.14,0a1.74,1.74,0,1,0-1.75,1.78A1.71,1.71,0,0,0,110.22,27.41Z"/><path class="cls-1" d="M116.91,30.62l-2.34-2.91v2.91h-1.66V24.2h1.66V27l2.21-2.83h2l-2.58,3.17,2.66,3.25Z"/><path class="cls-1" d="M24.19,0h-18A6.18,6.18,0,0,0,0,6.16v18a6.18,6.18,0,0,0,6.16,6.16h18a6.18,6.18,0,0,0,6.16-6.16v-18A6.18,6.18,0,0,0,24.19,0Z"/><path class="cls-2" d="M15.32,10.57l-4.6,4.61,4.6,4.6a6.51,6.51,0,1,0,0-9.21Z"/><path class="cls-2" d="M7,15.18,2.4,10.57A6.82,6.82,0,0,0,1.31,9.7v11a7.43,7.43,0,0,0,1.09-.87Z"/><path class="cls-2" d="M13.46,21.64,8.86,17l-4.6,4.6a6.54,6.54,0,0,0-1.81,5.67A4.84,4.84,0,0,0,6.16,29h8.58A6.53,6.53,0,0,0,13.46,21.64Z"/><path class="cls-2" d="M4.26,8.71l4.6,4.6,4.6-4.6a6.51,6.51,0,0,0,1.27-7.4H6.16A4.83,4.83,0,0,0,2.45,3,6.57,6.57,0,0,0,4.26,8.71Z"/></g></g></svg>