<svg width="76" height="36" viewBox="0 0 76 36" fill="none" xmlns="http://www.w3.org/2000/svg">
<path d="M3.74225 20.9031L65.2261 20.9031L55.0411 31.0388C53.9046 32.1699 53.9003 34.008 55.0314 35.1445C56.1625 36.2811 58.0008 36.2853 59.1372 35.1543L74.3071 20.0577C74.3081 20.0568 74.3088 20.0558 74.3097 20.0549C75.4432 18.9238 75.4469 17.0797 74.31 15.9448C74.309 15.944 74.3082 15.9429 74.3074 15.9421L59.1375 0.845381C58.0012 -0.285417 56.1629 -0.2815 55.0317 0.85525C53.9006 1.99171 53.9049 3.82988 55.0414 4.96097L65.2261 15.0967L3.74225 15.0967C2.1388 15.0967 0.839037 16.3964 0.839037 17.9999C0.839036 19.6033 2.1388 20.9031 3.74225 20.9031Z" fill="url(#paint0_linear)"/>
<defs>
<linearGradient id="paint0_linear" x1="77.7947" y1="2.49227" x2="20.8176" y2="58.3277" gradientUnits="userSpaceOnUse">
<stop stop-color="#E7047F"/>
<stop offset="0.448477" stop-color="#FF0D74"/>
<stop offset="1" stop-color="#FF583C"/>
</linearGradient>
</defs>
</svg>
