<svg width="36" height="36" viewBox="0 0 36 36" fill="none" xmlns="http://www.w3.org/2000/svg">
<path d="M26.4712 17.2197H18.9595V9.70795C18.9595 9.27428 18.6081 8.92297 18.1745 8.92297C17.7411 8.92297 17.3895 9.27428 17.3895 9.70795V17.2197H9.49299C9.05932 17.2197 8.70801 17.5713 8.70801 18.0047C8.70801 18.4384 9.05932 18.7897 9.49299 18.7897H17.3974V26.694C17.3974 27.1275 17.7489 27.479 18.1821 27.479C18.6158 27.479 18.9671 27.1275 18.9671 26.694V18.7897H26.4793C26.9125 18.7875 27.2623 18.4342 27.2601 18.0008C27.2582 17.5676 26.9049 17.2177 26.4712 17.2197Z" fill="#FB7059"/>
<path d="M18.0095 1.12847C11.1836 1.12724 5.02942 5.23873 2.41733 11.5451C-0.194274 17.8518 1.25031 25.1105 6.07844 29.9357C12.668 36.5253 23.3514 36.5253 29.9408 29.9357C36.5302 23.3466 36.5302 12.6632 29.9408 6.07362C26.7834 2.8983 22.4873 1.11765 18.0095 1.12847ZM18.0095 33.3112C9.57139 33.3112 2.70324 26.4428 2.70324 18.0047C2.70324 9.56657 9.57139 2.69843 18.0095 2.69843C26.4476 2.69843 33.316 9.56657 33.316 18.0047C33.316 26.4428 26.4476 33.3112 18.0095 33.3112Z" fill="#FB7059"/>
</svg>
